<?xml version="1.0" standalone="no"?><!DOCTYPE svg PUBLIC "-//W3C//DTD SVG 1.1//EN" "http://www.w3.org/Graphics/SVG/1.1/DTD/svg11.dtd"><svg t="1627056393831" class="icon" viewBox="0 0 1024 1024" version="1.1" xmlns="http://www.w3.org/2000/svg" p-id="780" width="48" height="48" xmlns:xlink="http://www.w3.org/1999/xlink"><defs><style type="text/css">@font-face { font-family: feedback-iconfont; src: url("//at.alicdn.com/t/font_1031158_1uhr8ri0pk5.eot?#iefix") format("embedded-opentype"), url("//at.alicdn.com/t/font_1031158_1uhr8ri0pk5.woff2") format("woff2"), url("//at.alicdn.com/t/font_1031158_1uhr8ri0pk5.woff") format("woff"), url("//at.alicdn.com/t/font_1031158_1uhr8ri0pk5.ttf") format("truetype"), url("//at.alicdn.com/t/font_1031158_1uhr8ri0pk5.svg#iconfont") format("svg"); }
</style></defs><path d="M235.2 719.648m-64 0a64 64 0 1 0 128 0 64 64 0 1 0-128 0Z" fill="#1890ff" p-id="781"></path><path d="M235.2 687.648a32.032 32.032 0 0 1 0 64 32.032 32.032 0 0 1 0-64m0-64a96 96 0 1 0 0 192 96 96 0 0 0 0-192z" fill="#1890ff" p-id="782"></path><path d="M788.8 719.648m-64 0a64 64 0 1 0 128 0 64 64 0 1 0-128 0Z" fill="#1890ff" p-id="783"></path><path d="M788.8 687.648a32.032 32.032 0 0 1 0 64c-17.632 0-32-14.368-32-32 0-17.632 14.4-32 32-32m0-64a96 96 0 1 0 0 192 96 96 0 0 0 0-192z" fill="#1890ff" p-id="784"></path><path d="M226.016 592.576A283.712 283.712 0 0 1 224 559.808c0-118.016 71.392-219.552 173.248-264A126.368 126.368 0 0 1 384 240.192c0-2.816 0.672-5.44 0.832-8.224C253.472 283.104 160 410.592 160 559.808c0 18.112 1.824 35.84 4.48 53.248a126.912 126.912 0 0 1 61.536-20.48zM640 240.192a127.04 127.04 0 0 1-13.216 55.648C728.64 340.288 800 441.824 800 559.808c0 11.104-0.736 22.016-2.016 32.736a127.36 127.36 0 0 1 61.504 20.512A347.84 347.84 0 0 0 864 559.808c0-149.216-93.472-276.704-224.8-327.872 0.128 2.784 0.8 5.44 0.8 8.256zM682.688 791.264c-47.84 35.328-106.752 56.576-170.688 56.576s-122.848-21.184-170.688-56.576a128.16 128.16 0 0 1-49.6 42.688A349.984 349.984 0 0 0 512 911.84a350.08 350.08 0 0 0 220.288-77.888 128.928 128.928 0 0 1-49.6-42.688z" fill="#1890ff" p-id="785"></path><path d="M512 240.192m-64 0a64 64 0 1 0 128 0 64 64 0 1 0-128 0Z" fill="#1890ff" p-id="786"></path><path d="M512 208.192c17.632 0 32 14.368 32 32 0 17.632-14.368 32-32 32s-32-14.368-32-32c0-17.632 14.368-32 32-32m0-64a96 96 0 1 0 0 192 96 96 0 0 0 0-192z" fill="#1890ff" p-id="787"></path></svg>